<?xml version="1.0" encoding="utf-8"?>
<!-- Generator: Adobe Illustrator 24.0.0, SVG Export Plug-In . SVG Version: 6.00 Build 0)  -->
<svg version="1.1" id="Layer_1" xmlns="http://www.w3.org/2000/svg" xmlns:xlink="http://www.w3.org/1999/xlink" x="0px" y="0px"
	 viewBox="0 0 256 256" style="enable-background:new 0 0 256 256;" xml:space="preserve">
<style type="text/css">
	.st0{fill:#382B73;}
	.st1{fill:#291B4A;}
	.st2{fill:#ED9ABC;}
	.st3{fill:#E54890;}
	.st4{fill:#D3D3D3;}
	.st5{fill:#EBE7F2;}
	.st6{fill:#F9B087;}
	.st7{fill:#FF8639;}
	.st8{fill:#65C1D6;}
	.st9{fill:#149CB2;}
</style>
<g>
	<g>
		<g>
			<g>
				<g>
					
						<ellipse transform="matrix(0.7071 -0.7071 0.7071 0.7071 -53.0193 128)" class="st0" cx="128" cy="128" rx="119.4" ry="119.4"/>
				</g>
			</g>
		</g>
	</g>
	<g>
		<g>
			<g>
				<g>
					<path class="st1" d="M61.998,131.124c-6.231,1.095-10.984,6.534-10.984,13.074c0,7.327,5.961,13.288,13.288,13.288
						s13.288-5.961,13.288-13.288c0-6.399-4.547-11.755-10.58-13.009c1.793-22.047,15.217-41.292,35.476-50.597
						c0.016-0.007,0.029-0.019,0.044-0.026l2.978,0.767l-2.596,4.398c-1.197,2.033-0.868,4.617,0.8,6.285l4.289,4.289
						c1.668,1.669,4.252,1.998,6.287,0.799l4.396-2.595l1.274,4.945c0.59,2.284,2.65,3.878,5.01,3.878h6.065
						c2.358,0,4.419-1.595,5.011-3.88l1.274-4.943l4.397,2.596c2.034,1.197,4.617,0.866,6.284-0.8l4.289-4.289
						c1.668-1.667,1.997-4.251,0.8-6.287l-2.595-4.396l2.989-0.77c0.034,0.018,0.063,0.042,0.098,0.058
						c20.221,9.317,33.621,28.55,35.411,50.568c-6.033,1.254-10.58,6.61-10.58,13.009c0,7.327,5.961,13.288,13.288,13.288
						s13.288-5.961,13.288-13.288c0-6.54-4.753-11.979-10.984-13.074c-1.741-22.854-15.045-42.968-35.34-53.564
						c0.417-0.75,0.654-1.607,0.654-2.51v-0.013h14.831c1.373,5.875,6.642,10.268,12.929,10.268c7.326,0,13.287-5.961,13.287-13.288
						s-5.961-13.288-13.287-13.288c-6.652,0-12.163,4.919-13.124,11.307h-14.636v-1.052c0-2.359-1.595-4.419-3.878-5.01
						c-0.001,0-0.002,0-0.003,0l-4.942-1.273l2.597-4.399c1.195-2.032,0.866-4.617-0.802-6.284l-4.289-4.29
						c-1.667-1.666-4.253-1.996-6.286-0.798l-4.396,2.595l-1.275-4.946c-0.591-2.283-2.651-3.877-5.01-3.877h-6.065
						c-2.359,0-4.419,1.595-5.01,3.88l-1.273,4.943l-4.399-2.597c-2.033-1.196-4.617-0.867-6.284,0.801l-4.289,4.289
						c-1.668,1.667-1.997,4.252-0.799,6.287l2.594,4.396l-4.946,1.274c-2.283,0.591-3.877,2.651-3.877,5.01v1.052H81.003
						C80.042,63.649,74.532,58.73,67.88,58.73c-7.327,0-13.288,5.961-13.288,13.288s5.961,13.288,13.288,13.288
						c6.287,0,11.556-4.394,12.928-10.268h15.876v0.013c0,0.903,0.237,1.76,0.654,2.51C77.041,88.156,63.738,108.264,61.998,131.124
						z M72.588,144.199c0,4.57-3.718,8.288-8.288,8.288s-8.288-3.718-8.288-8.288c0-4.563,3.706-8.275,8.267-8.287
						c0.025,0.001,0.05,0.002,0.075,0.002C68.899,135.943,72.588,139.647,72.588,144.199z M191.72,135.912
						c4.561,0.011,8.267,3.724,8.267,8.287c0,4.57-3.718,8.288-8.288,8.288s-8.288-3.718-8.288-8.288
						c0-4.552,3.689-8.256,8.235-8.285C191.671,135.913,191.695,135.912,191.72,135.912z M187.076,63.73
						c4.569,0,8.287,3.718,8.287,8.288s-3.718,8.288-8.287,8.288c-4.57,0-8.288-3.718-8.288-8.288S182.506,63.73,187.076,63.73z
						 M101.684,68.985c0-0.08,0.054-0.15,0.128-0.169l8.161-2.103c0.761-0.196,1.385-0.738,1.686-1.464
						c0.301-0.726,0.243-1.551-0.157-2.227l-4.282-7.256c-0.041-0.068-0.029-0.156,0.027-0.212l4.289-4.289
						c0.056-0.057,0.145-0.067,0.21-0.028l7.258,4.284c0.676,0.399,1.502,0.458,2.228,0.157c0.726-0.3,1.269-0.925,1.464-1.686
						l2.103-8.16c0.02-0.077,0.089-0.13,0.169-0.13h6.065c0.08,0,0.149,0.054,0.169,0.128l2.104,8.162
						c0.196,0.761,0.738,1.385,1.464,1.686c0.728,0.301,1.553,0.243,2.228-0.157l7.256-4.283c0.069-0.041,0.156-0.028,0.212,0.027
						l4.289,4.289c0.057,0.057,0.067,0.145,0.028,0.21l-4.284,7.258c-0.399,0.677-0.457,1.502-0.156,2.228
						c0.301,0.726,0.925,1.268,1.686,1.464l8.159,2.103c0.077,0.02,0.131,0.09,0.131,0.169v6.065c0,0.08-0.054,0.149-0.129,0.168
						l-8.161,2.103c-0.761,0.196-1.385,0.738-1.686,1.464c-0.301,0.726-0.243,1.551,0.156,2.228l4.283,7.254
						c0.04,0.069,0.029,0.157-0.027,0.213l-4.289,4.289c-0.056,0.056-0.143,0.068-0.21,0.029l-7.258-4.284
						c-0.676-0.4-1.502-0.458-2.228-0.157c-0.726,0.3-1.268,0.925-1.464,1.686l-2.103,8.159c-0.021,0.077-0.09,0.131-0.17,0.131
						h-6.065c-0.08,0-0.149-0.054-0.168-0.128l-2.103-8.162c-0.196-0.761-0.738-1.385-1.464-1.686
						c-0.307-0.127-0.632-0.19-0.957-0.19c-0.441,0-0.881,0.117-1.271,0.347l-7.254,4.282c-0.07,0.041-0.157,0.029-0.213-0.026
						l-4.289-4.289c-0.056-0.057-0.067-0.144-0.028-0.21l4.284-7.258c0.399-0.676,0.458-1.501,0.157-2.227
						c-0.3-0.726-0.925-1.269-1.686-1.464l-8.158-2.102c-0.077-0.02-0.131-0.09-0.131-0.169V68.985z M67.88,80.305
						c-4.57,0-8.288-3.718-8.288-8.288s3.718-8.288,8.288-8.288c4.57,0,8.288,3.718,8.288,8.288S72.45,80.305,67.88,80.305z"/>
				</g>
			</g>
		</g>
		<g>
			<g>
				<g>
					<path class="st1" d="M140.31,72.018c0-6.788-5.522-12.31-12.31-12.31c-6.788,0-12.31,5.522-12.31,12.31
						s5.522,12.31,12.31,12.31C134.787,84.327,140.31,78.805,140.31,72.018z M120.69,72.018c0-4.031,3.279-7.31,7.31-7.31
						s7.31,3.279,7.31,7.31c0,4.03-3.279,7.31-7.31,7.31S120.69,76.048,120.69,72.018z"/>
				</g>
			</g>
		</g>
		<g>
			<g>
				<g>
					<path class="st1" d="M91.28,194.763c0,4.817,3.919,8.735,8.736,8.735h2.063v17.3c0,1.381,1.119,2.5,2.5,2.5s2.5-1.119,2.5-2.5
						v-17.3h41.844v17.3c0,1.381,1.119,2.5,2.5,2.5s2.5-1.119,2.5-2.5v-17.3h2.063c4.816,0,8.735-3.918,8.735-8.735
						s-3.919-8.736-8.735-8.736h-6.747l8.803-25.164c1.032-2.84,0.722-6.082-0.822-8.656l-20.325-34.474
						c-0.731-1.268-1.715-2.357-2.987-3.282c-3.533-2.405-8.277-2.405-11.874,0.045c-1.208,0.879-2.192,1.967-2.913,3.216
						l-20.327,34.479c-1.554,2.589-1.865,5.832-0.842,8.643l8.812,25.193h-6.747C95.199,186.027,91.28,189.946,91.28,194.763z
						 M128,151.87c3.012,0,5.462,2.45,5.462,5.462s-2.45,5.462-5.462,5.462c-3.012,0-5.462-2.45-5.462-5.462
						S124.988,151.87,128,151.87z M102.66,159.154c-0.523-1.439-0.366-3.081,0.43-4.408l20.348-34.515
						c0.38-0.658,0.896-1.228,1.472-1.647c0.189-0.129,0.389-0.236,0.59-0.338v28.938c-4.564,1.125-7.962,5.242-7.962,10.148
						c0,5.769,4.693,10.462,10.462,10.462c5.769,0,10.462-4.693,10.462-10.462c0-4.906-3.399-9.022-7.962-10.148v-28.945
						c0.18,0.093,0.359,0.186,0.527,0.3c0.639,0.465,1.154,1.034,1.546,1.712l20.348,34.511c0.786,1.312,0.943,2.953,0.41,4.42
						l-9.391,26.844h-31.881L102.66,159.154z M155.984,191.027c2.06,0,3.735,1.676,3.735,3.736c0,2.06-1.676,3.735-3.735,3.735
						h-55.969c-2.06,0-3.736-1.676-3.736-3.735c0-2.06,1.676-3.736,3.736-3.736H155.984z"/>
				</g>
			</g>
		</g>
	</g>
	<g>
		<g>
			<g>
				<g>
					<path class="st2" d="M99.184,71.037c1.381,0,2.5-1.119,2.5-2.5s-1.119-2.5-2.5-2.5H79.712c-1.381,0-2.5,1.119-2.5,2.5
						s1.119,2.5,2.5,2.5H99.184z"/>
				</g>
			</g>
		</g>
		<g>
			<g>
				<g>
					<path class="st3" d="M99.184,71.037c1.381,0,2.5-1.119,2.5-2.5s-1.119-2.5-2.5-2.5H79.712c-1.381,0-2.5,1.119-2.5,2.5
						s1.119,2.5,2.5,2.5H99.184z M78.712,68.537c0-0.551,0.449-1,1-1h19.472c0.551,0,1,0.449,1,1s-0.449,1-1,1H79.712
						C79.161,69.537,78.712,69.089,78.712,68.537z"/>
				</g>
			</g>
		</g>
		<g>
			<g>
				<g>
					<path class="st2" d="M176.288,71.037c1.381,0,2.5-1.119,2.5-2.5s-1.119-2.5-2.5-2.5h-19.472c-1.381,0-2.5,1.119-2.5,2.5
						s1.119,2.5,2.5,2.5H176.288z"/>
				</g>
			</g>
		</g>
		<g>
			<g>
				<g>
					<path class="st3" d="M176.288,71.037c1.381,0,2.5-1.119,2.5-2.5s-1.119-2.5-2.5-2.5h-19.472c-1.381,0-2.5,1.119-2.5,2.5
						s1.119,2.5,2.5,2.5H176.288z M155.816,68.537c0-0.551,0.449-1,1-1h19.472c0.551,0,1,0.449,1,1s-0.449,1-1,1h-19.472
						C156.265,69.537,155.816,69.089,155.816,68.537z"/>
				</g>
			</g>
		</g>
		<g>
			<g>
				<g>
					<path class="st2" d="M189.14,129.522c0.059,1.342,1.166,2.391,2.496,2.391c0.037,0,0.074-0.001,0.11-0.002
						c1.38-0.06,2.449-1.227,2.39-2.606c-1.084-24.865-15.822-46.792-38.464-57.224c-1.255-0.579-2.738-0.029-3.316,1.225
						c-0.578,1.254-0.029,2.739,1.225,3.316C174.513,86.267,188.139,106.537,189.14,129.522z"/>
				</g>
			</g>
		</g>
		<g>
			<g>
				<g>
					<path class="st3" d="M189.14,129.522c0.059,1.342,1.166,2.391,2.496,2.391c0.037,0,0.074-0.001,0.11-0.002
						c1.38-0.06,2.449-1.227,2.39-2.606c-1.084-24.865-15.822-46.792-38.464-57.224c-0.339-0.156-0.695-0.23-1.045-0.23
						c-0.946,0-1.85,0.54-2.272,1.455c-0.578,1.254-0.029,2.739,1.225,3.316C174.513,86.267,188.139,106.537,189.14,129.522z
						 M153.718,73.934c0.163-0.354,0.52-0.583,0.91-0.583c0.143,0,0.283,0.031,0.417,0.093
						c22.129,10.195,36.534,31.625,37.593,55.926c0.024,0.551-0.405,1.019-1.001,1.044c-0.536,0-0.974-0.42-0.997-0.956
						c-1.026-23.549-14.985-44.317-36.431-54.198c-0.243-0.112-0.427-0.311-0.52-0.562
						C153.595,74.447,153.606,74.176,153.718,73.934z"/>
				</g>
			</g>
		</g>
		<g>
			<g>
				<g>
					<path class="st2" d="M64.364,131.914c1.331,0,2.437-1.049,2.496-2.391c1.003-23.016,14.654-43.297,35.625-52.93
						c1.255-0.577,1.805-2.061,1.229-3.315c-0.577-1.255-2.062-1.805-3.315-1.229c-22.682,10.419-37.447,32.358-38.533,57.256
						c-0.06,1.379,1.009,2.546,2.389,2.606C64.291,131.913,64.327,131.914,64.364,131.914z"/>
				</g>
			</g>
		</g>
		<g>
			<g>
				<g>
					<path class="st3" d="M64.364,131.914c1.331,0,2.437-1.049,2.496-2.391c1.003-23.016,14.654-43.297,35.625-52.93
						c1.255-0.577,1.805-2.061,1.229-3.315c-0.422-0.917-1.328-1.458-2.274-1.458c-0.349,0-0.704,0.074-1.041,0.229
						c-22.682,10.419-37.447,32.358-38.533,57.256c-0.06,1.379,1.009,2.546,2.389,2.606
						C64.291,131.913,64.327,131.914,64.364,131.914z M63.363,129.37c1.061-24.333,15.491-45.775,37.661-55.958
						c0.132-0.061,0.272-0.092,0.414-0.092c0.39,0,0.748,0.229,0.911,0.584c0.23,0.501,0.01,1.096-0.492,1.326
						c-21.484,9.868-35.469,30.647-36.497,54.227c-0.023,0.536-0.461,0.957-0.997,0.957l-0.046-0.001
						C63.768,130.389,63.339,129.921,63.363,129.37z"/>
				</g>
			</g>
		</g>
		<g>
			<g>
				<g>
					<path class="st8" d="M81.167,68.018c0-7.327-5.961-13.288-13.288-13.288c-7.327,0-13.288,5.961-13.288,13.288
						s5.961,13.288,13.288,13.288C75.207,81.305,81.167,75.344,81.167,68.018z M59.592,68.018c0-4.57,3.718-8.288,8.288-8.288
						c4.57,0,8.288,3.718,8.288,8.288s-3.718,8.288-8.288,8.288C63.31,76.305,59.592,72.587,59.592,68.018z"/>
				</g>
			</g>
		</g>
		<g>
			<g>
				<g>
					<path class="st8" d="M200.363,68.018c0-7.327-5.961-13.288-13.287-13.288c-7.327,0-13.288,5.961-13.288,13.288
						s5.961,13.288,13.288,13.288C194.402,81.305,200.363,75.344,200.363,68.018z M178.788,68.018c0-4.57,3.718-8.288,8.288-8.288
						c4.569,0,8.287,3.718,8.287,8.288s-3.718,8.288-8.287,8.288C182.506,76.305,178.788,72.587,178.788,68.018z"/>
				</g>
			</g>
		</g>
		<g>
			<g>
				<g>
					<path class="st8" d="M77.588,140.199c0-7.327-5.961-13.288-13.288-13.288s-13.288,5.961-13.288,13.288
						c0,7.327,5.961,13.288,13.288,13.288S77.588,147.525,77.588,140.199z M56.013,140.199c0-4.57,3.718-8.288,8.288-8.288
						s8.288,3.718,8.288,8.288s-3.718,8.288-8.288,8.288S56.013,144.769,56.013,140.199z"/>
				</g>
			</g>
		</g>
		<g>
			<g>
				<g>
					<path class="st8" d="M204.987,140.199c0-7.327-5.961-13.288-13.288-13.288s-13.288,5.961-13.288,13.288
						c0,7.327,5.961,13.288,13.288,13.288S204.987,147.525,204.987,140.199z M183.411,140.199c0-4.57,3.718-8.288,8.288-8.288
						s8.288,3.718,8.288,8.288s-3.718,8.288-8.288,8.288S183.411,144.769,183.411,140.199z"/>
				</g>
			</g>
		</g>
		<g>
			<g>
				<g>
					<path class="st8" d="M128,80.327c6.787,0,12.31-5.522,12.31-12.31s-5.522-12.31-12.31-12.31c-6.788,0-12.31,5.522-12.31,12.31
						S121.212,80.327,128,80.327z M128,60.708c4.03,0,7.31,3.279,7.31,7.31c0,4.03-3.279,7.31-7.31,7.31s-7.31-3.279-7.31-7.31
						C120.69,63.987,123.97,60.708,128,60.708z"/>
					<path class="st8" d="M96.684,64.985v6.065c0,2.358,1.595,4.418,3.88,5.01l4.943,1.273l-2.596,4.398
						c-1.197,2.033-0.868,4.617,0.8,6.285l4.289,4.289c1.668,1.668,4.252,1.998,6.287,0.799l4.396-2.595l1.274,4.945
						c0.59,2.284,2.65,3.878,5.01,3.878h6.065c2.358,0,4.419-1.595,5.011-3.88l1.274-4.943l4.397,2.596
						c2.034,1.197,4.617,0.866,6.284-0.8l4.289-4.289c1.668-1.667,1.997-4.251,0.8-6.287l-2.595-4.396l4.945-1.274
						c2.283-0.591,3.878-2.651,3.878-5.01v-6.065c0-2.359-1.595-4.419-3.878-5.01c-0.001,0-0.002,0-0.003,0l-4.942-1.273
						l2.597-4.399c1.195-2.032,0.866-4.617-0.802-6.284l-4.289-4.29c-1.667-1.666-4.253-1.996-6.286-0.798l-4.396,2.595
						l-1.275-4.946c-0.591-2.283-2.651-3.877-5.01-3.877h-6.065c-2.359,0-4.419,1.595-5.01,3.88l-1.273,4.943l-4.399-2.597
						c-2.033-1.196-4.617-0.867-6.284,0.801l-4.289,4.289c-1.668,1.667-1.997,4.252-0.799,6.287l2.594,4.396l-4.946,1.274
						C98.279,60.566,96.684,62.626,96.684,64.985z M101.684,64.985c0-0.08,0.054-0.15,0.128-0.169l8.161-2.103
						c0.761-0.196,1.385-0.738,1.686-1.464c0.301-0.726,0.243-1.551-0.157-2.227l-4.282-7.256c-0.041-0.068-0.029-0.156,0.027-0.212
						l4.289-4.289c0.056-0.057,0.145-0.066,0.21-0.028l7.258,4.284c0.676,0.399,1.502,0.458,2.228,0.157
						c0.726-0.3,1.269-0.925,1.464-1.686l2.103-8.16c0.02-0.077,0.089-0.13,0.169-0.13h6.065c0.08,0,0.149,0.054,0.169,0.128
						l2.104,8.162c0.196,0.761,0.738,1.385,1.464,1.686c0.728,0.301,1.553,0.243,2.228-0.157l7.256-4.283
						c0.069-0.04,0.156-0.028,0.212,0.027l4.289,4.289c0.057,0.057,0.067,0.145,0.028,0.21l-4.284,7.258
						c-0.399,0.677-0.457,1.502-0.156,2.228c0.301,0.726,0.925,1.268,1.686,1.464l8.159,2.103c0.077,0.02,0.131,0.09,0.131,0.169
						v6.065c0,0.08-0.054,0.149-0.129,0.168l-8.161,2.103c-0.761,0.196-1.385,0.738-1.686,1.464
						c-0.301,0.726-0.243,1.551,0.156,2.228l4.283,7.254c0.04,0.069,0.029,0.157-0.027,0.213l-4.289,4.289
						c-0.056,0.056-0.143,0.068-0.21,0.029l-7.258-4.284c-0.676-0.4-1.502-0.458-2.228-0.157c-0.726,0.3-1.268,0.925-1.464,1.686
						l-2.103,8.159c-0.021,0.077-0.09,0.131-0.17,0.131h-6.065c-0.08,0-0.149-0.054-0.168-0.128l-2.103-8.162
						c-0.196-0.761-0.738-1.385-1.464-1.686c-0.307-0.127-0.632-0.19-0.957-0.19c-0.441,0-0.881,0.117-1.271,0.347l-7.254,4.282
						c-0.07,0.041-0.157,0.029-0.213-0.026l-4.289-4.289c-0.056-0.057-0.067-0.144-0.028-0.21l4.284-7.258
						c0.399-0.676,0.458-1.501,0.157-2.227c-0.3-0.726-0.925-1.269-1.686-1.464l-8.158-2.102c-0.077-0.02-0.131-0.09-0.131-0.169
						V64.985z"/>
				</g>
			</g>
		</g>
		<g>
			<g>
				<g>
					<g>
						<path class="st9" d="M81.167,68.018c0-7.327-5.961-13.288-13.288-13.288c-7.327,0-13.288,5.961-13.288,13.288
							s5.961,13.288,13.288,13.288C75.207,81.305,81.167,75.344,81.167,68.018z M56.092,68.018c0-6.5,5.288-11.788,11.788-11.788
							c6.5,0,11.788,5.288,11.788,11.788S74.38,79.805,67.88,79.805C61.38,79.805,56.092,74.517,56.092,68.018z"/>
						<path class="st9" d="M77.667,68.018c0-5.397-4.391-9.788-9.788-9.788c-5.397,0-9.788,4.391-9.788,9.788
							s4.391,9.788,9.788,9.788C73.277,77.805,77.667,73.414,77.667,68.018z M59.592,68.018c0-4.57,3.718-8.288,8.288-8.288
							c4.57,0,8.288,3.718,8.288,8.288s-3.718,8.288-8.288,8.288C63.31,76.305,59.592,72.587,59.592,68.018z"/>
					</g>
				</g>
			</g>
			<g>
				<g>
					<g>
						<path class="st9" d="M196.863,68.018c0-5.397-4.391-9.788-9.787-9.788c-5.397,0-9.788,4.391-9.788,9.788
							s4.391,9.788,9.788,9.788C192.473,77.805,196.863,73.414,196.863,68.018z M178.788,68.018c0-4.57,3.718-8.288,8.288-8.288
							c4.569,0,8.287,3.718,8.287,8.288s-3.718,8.288-8.287,8.288C182.506,76.305,178.788,72.587,178.788,68.018z"/>
						<path class="st9" d="M200.363,68.018c0-7.327-5.961-13.288-13.287-13.288c-7.327,0-13.288,5.961-13.288,13.288
							s5.961,13.288,13.288,13.288C194.402,81.305,200.363,75.344,200.363,68.018z M175.288,68.018
							c0-6.5,5.288-11.788,11.788-11.788c6.499,0,11.787,5.288,11.787,11.788s-5.288,11.788-11.787,11.788
							C180.576,79.805,175.288,74.517,175.288,68.018z"/>
					</g>
				</g>
			</g>
			<g>
				<g>
					<g>
						<path class="st9" d="M77.588,140.199c0-7.327-5.961-13.288-13.288-13.288s-13.288,5.961-13.288,13.288
							c0,7.327,5.961,13.288,13.288,13.288S77.588,147.525,77.588,140.199z M52.513,140.199c0-6.5,5.288-11.788,11.788-11.788
							s11.788,5.288,11.788,11.788c0,6.5-5.288,11.788-11.788,11.788S52.513,146.698,52.513,140.199z"/>
						<path class="st9" d="M74.088,140.199c0-5.397-4.391-9.788-9.788-9.788s-9.788,4.391-9.788,9.788
							c0,5.397,4.391,9.788,9.788,9.788S74.088,145.596,74.088,140.199z M56.013,140.199c0-4.57,3.718-8.288,8.288-8.288
							s8.288,3.718,8.288,8.288s-3.718,8.288-8.288,8.288S56.013,144.769,56.013,140.199z"/>
					</g>
				</g>
			</g>
			<g>
				<g>
					<g>
						<path class="st9" d="M201.487,140.199c0-5.397-4.391-9.788-9.788-9.788s-9.788,4.391-9.788,9.788
							c0,5.397,4.391,9.788,9.788,9.788S201.487,145.596,201.487,140.199z M183.411,140.199c0-4.57,3.718-8.288,8.288-8.288
							s8.288,3.718,8.288,8.288s-3.718,8.288-8.288,8.288S183.411,144.769,183.411,140.199z"/>
						<path class="st9" d="M204.987,140.199c0-7.327-5.961-13.288-13.288-13.288s-13.288,5.961-13.288,13.288
							c0,7.327,5.961,13.288,13.288,13.288S204.987,147.525,204.987,140.199z M179.911,140.199c0-6.5,5.288-11.788,11.788-11.788
							s11.788,5.288,11.788,11.788c0,6.5-5.288,11.788-11.788,11.788S179.911,146.698,179.911,140.199z"/>
					</g>
				</g>
			</g>
			<g>
				<g>
					<g>
						<path class="st9" d="M140.31,68.018c0-6.788-5.522-12.31-12.31-12.31c-6.788,0-12.31,5.522-12.31,12.31
							s5.522,12.31,12.31,12.31C134.787,80.327,140.31,74.805,140.31,68.018z M117.19,68.018c0-5.961,4.849-10.81,10.81-10.81
							s10.81,4.849,10.81,10.81c0,5.96-4.849,10.81-10.81,10.81S117.19,73.978,117.19,68.018z"/>
						<path class="st9" d="M136.81,68.018c0-4.858-3.952-8.81-8.81-8.81s-8.81,3.952-8.81,8.81c0,4.858,3.952,8.81,8.81,8.81
							S136.81,72.875,136.81,68.018z M120.69,68.018c0-4.031,3.279-7.31,7.31-7.31s7.31,3.279,7.31,7.31
							c0,4.03-3.279,7.31-7.31,7.31S120.69,72.048,120.69,68.018z"/>
					</g>
				</g>
			</g>
			<g>
				<g>
					<g>
						<path class="st9" d="M101.441,72.672l8.159,2.102c0.302,0.078,0.554,0.297,0.674,0.586c0.12,0.288,0.096,0.621-0.063,0.89
							l-4.285,7.26c-0.384,0.654-0.279,1.487,0.261,2.032l4.303,4.303c0.315,0.307,0.731,0.476,1.171,0.476
							c0.295,0,0.587-0.078,0.852-0.232l7.255-4.282c0.154-0.091,0.329-0.139,0.508-0.139c0.132,0,0.26,0.026,0.383,0.077
							c0.289,0.119,0.507,0.371,0.585,0.674l2.104,8.167c0.192,0.735,0.858,1.249,1.62,1.249h6.065c0.759,0,1.425-0.512,1.622-1.257
							l2.102-8.158c0.078-0.303,0.297-0.555,0.587-0.675c0.122-0.051,0.25-0.076,0.382-0.076c0.178,0,0.353,0.048,0.508,0.139
							l7.268,4.29c0.254,0.147,0.544,0.225,0.838,0.225c0.444,0,0.877-0.181,1.185-0.491l4.289-4.289
							c0.537-0.537,0.645-1.371,0.258-2.037l-4.283-7.254c-0.159-0.269-0.182-0.602-0.062-0.891c0.12-0.289,0.372-0.508,0.674-0.586
							l8.164-2.104c0.737-0.192,1.252-0.858,1.252-1.62v-6.065c0-0.763-0.516-1.43-1.257-1.622l-8.159-2.102
							c-0.303-0.078-0.555-0.297-0.675-0.586c-0.12-0.289-0.096-0.622,0.062-0.891l4.28-7.251c0.393-0.658,0.288-1.497-0.255-2.04
							l-4.299-4.298c-0.315-0.31-0.732-0.48-1.175-0.48c-0.291,0-0.579,0.076-0.851,0.232l-7.258,4.284
							c-0.152,0.09-0.327,0.138-0.505,0.138c-0.132,0-0.261-0.026-0.385-0.077c-0.288-0.119-0.507-0.371-0.585-0.674l-2.105-8.169
							c-0.193-0.734-0.859-1.246-1.62-1.246h-6.065c-0.766,0-1.434,0.518-1.622,1.256l-2.103,8.16
							c-0.078,0.302-0.297,0.554-0.586,0.674c-0.122,0.05-0.25,0.076-0.382,0.076c-0.179,0-0.354-0.048-0.508-0.139l-7.266-4.289
							c-0.254-0.148-0.545-0.226-0.84-0.226c-0.444,0-0.877,0.18-1.185,0.49l-4.294,4.294c-0.537,0.542-0.641,1.378-0.253,2.031
							l4.282,7.256c0.159,0.269,0.182,0.601,0.062,0.891c-0.119,0.288-0.371,0.507-0.674,0.585l-8.16,2.103
							c-0.739,0.19-1.256,0.857-1.256,1.622v6.065C100.184,71.813,100.7,72.48,101.441,72.672z M101.684,64.985
							c0-0.08,0.054-0.15,0.128-0.169l8.161-2.103c0.761-0.196,1.385-0.738,1.686-1.464c0.301-0.726,0.243-1.551-0.157-2.227
							l-4.282-7.256c-0.041-0.068-0.029-0.156,0.027-0.212l4.289-4.289c0.034-0.034,0.079-0.051,0.124-0.051
							c0.03,0,0.06,0.008,0.086,0.023l7.258,4.284c0.39,0.23,0.829,0.347,1.271,0.347c0.324,0,0.649-0.063,0.957-0.19
							c0.726-0.3,1.269-0.925,1.464-1.686l2.103-8.16c0.02-0.077,0.089-0.13,0.169-0.13h6.065c0.08,0,0.149,0.054,0.169,0.128
							l2.104,8.162c0.196,0.761,0.738,1.385,1.464,1.686c0.308,0.128,0.634,0.191,0.958,0.191c0.441,0,0.88-0.117,1.269-0.347
							l7.256-4.283c0.028-0.016,0.058-0.023,0.088-0.023c0.045,0,0.09,0.017,0.124,0.05l4.289,4.289
							c0.057,0.057,0.067,0.145,0.028,0.21l-4.284,7.258c-0.399,0.677-0.457,1.502-0.156,2.228c0.301,0.726,0.925,1.268,1.686,1.464
							l8.159,2.103c0.077,0.02,0.131,0.09,0.131,0.169v6.065c0,0.08-0.054,0.149-0.129,0.168l-8.161,2.103
							c-0.761,0.196-1.385,0.738-1.686,1.464c-0.301,0.726-0.243,1.551,0.156,2.228l4.283,7.254c0.04,0.069,0.029,0.157-0.027,0.213
							l-4.289,4.289c-0.034,0.034-0.079,0.052-0.124,0.052c-0.03,0-0.059-0.008-0.086-0.023l-7.258-4.284
							c-0.389-0.231-0.829-0.348-1.27-0.348c-0.325,0-0.65,0.063-0.958,0.191c-0.726,0.3-1.268,0.925-1.464,1.686l-2.103,8.159
							c-0.021,0.077-0.09,0.131-0.17,0.131h-6.065c-0.08,0-0.149-0.054-0.168-0.128l-2.103-8.162
							c-0.196-0.761-0.738-1.385-1.464-1.686c-0.307-0.127-0.632-0.19-0.957-0.19c-0.441,0-0.881,0.117-1.271,0.347l-7.254,4.282
							c-0.028,0.016-0.059,0.024-0.089,0.024c-0.045,0-0.09-0.017-0.124-0.051l-4.289-4.289c-0.056-0.057-0.067-0.144-0.028-0.21
							l4.284-7.258c0.399-0.676,0.458-1.501,0.157-2.227c-0.3-0.726-0.925-1.269-1.686-1.464l-8.158-2.102
							c-0.077-0.02-0.131-0.09-0.131-0.169V64.985z"/>
						<path class="st9" d="M96.684,64.985v6.065c0,2.358,1.595,4.418,3.88,5.01l4.943,1.273l-2.596,4.398
							c-1.197,2.033-0.868,4.617,0.8,6.285l4.289,4.289c0.997,0.997,2.322,1.516,3.66,1.516c0.901,0,1.808-0.235,2.627-0.717
							l4.396-2.595l1.274,4.945c0.59,2.284,2.65,3.878,5.01,3.878h6.065c2.358,0,4.419-1.595,5.011-3.88l1.274-4.943l4.397,2.596
							c0.817,0.481,1.724,0.715,2.623,0.715c1.339,0,2.664-0.519,3.661-1.516l4.289-4.289c1.668-1.667,1.997-4.251,0.8-6.287
							l-2.595-4.396l4.945-1.274c2.283-0.591,3.878-2.651,3.878-5.01v-6.065c0-2.359-1.595-4.419-3.878-5.01
							c-0.001,0-0.002,0-0.003,0l-4.942-1.273l2.597-4.399c1.195-2.032,0.866-4.617-0.802-6.284l-4.289-4.29
							c-0.997-0.996-2.322-1.515-3.661-1.515c-0.901,0-1.808,0.234-2.625,0.716l-4.396,2.595l-1.275-4.946
							c-0.591-2.283-2.651-3.877-5.01-3.877h-6.065c-2.359,0-4.419,1.595-5.01,3.88l-1.273,4.943l-4.399-2.597
							c-0.817-0.481-1.723-0.715-2.623-0.715c-1.339,0-2.664,0.519-3.661,1.516l-4.289,4.289c-1.668,1.667-1.997,4.252-0.799,6.287
							l2.594,4.396l-4.946,1.274C98.279,60.566,96.684,62.626,96.684,64.985z M105.882,60.153c0.456-0.118,0.831-0.443,1.012-0.878
							c0.18-0.436,0.146-0.931-0.094-1.336l-2.594-4.395c-0.851-1.445-0.618-3.28,0.567-4.465l4.289-4.289
							c0.694-0.694,1.617-1.076,2.599-1.076c0.654,0,1.298,0.176,1.861,0.507l4.399,2.597c0.234,0.138,0.498,0.208,0.763,0.208
							c0.194,0,0.39-0.038,0.574-0.114c0.436-0.18,0.761-0.555,0.879-1.012l1.273-4.942c0.42-1.622,1.883-2.756,3.558-2.756h6.065
							c1.675,0,3.138,1.132,3.557,2.751l1.275,4.946c0.118,0.456,0.443,0.831,0.879,1.011c0.184,0.076,0.379,0.114,0.574,0.114
							c0.265,0,0.529-0.07,0.763-0.208l4.394-2.594c0.565-0.333,1.209-0.509,1.864-0.509c0.983,0,1.906,0.382,2.6,1.075l4.289,4.29
							c1.184,1.184,1.418,3.018,0.57,4.46l-2.597,4.399c-0.24,0.406-0.274,0.901-0.094,1.336c0.18,0.436,0.555,0.761,1.012,0.879
							l4.942,1.273c0.007,0.002,0.014,0.004,0.022,0.005c1.611,0.427,2.733,1.885,2.733,3.553v6.065
							c0,1.675-1.133,3.138-2.752,3.557l-4.945,1.274c-0.457,0.118-0.831,0.443-1.012,0.879s-0.146,0.931,0.094,1.337l2.594,4.393
							c0.85,1.446,0.617,3.282-0.568,4.466l-4.289,4.289c-0.694,0.694-1.618,1.076-2.6,1.076c-0.654,0-1.298-0.176-1.861-0.507
							l-4.397-2.596c-0.234-0.138-0.498-0.208-0.763-0.208c-0.194,0-0.389,0.038-0.574,0.114c-0.436,0.18-0.761,0.555-0.879,1.011
							l-1.274,4.942c-0.42,1.623-1.884,2.756-3.559,2.756h-6.065c-1.675,0-3.138-1.132-3.557-2.753l-1.274-4.945
							c-0.118-0.457-0.443-0.831-0.879-1.012c-0.184-0.076-0.379-0.114-0.574-0.114c-0.265,0-0.529,0.07-0.763,0.208l-4.394,2.594
							c-0.566,0.333-1.211,0.51-1.866,0.51c-0.982,0-1.905-0.382-2.6-1.077l-4.289-4.289c-1.184-1.184-1.418-3.019-0.569-4.461
							l2.596-4.398c0.24-0.406,0.274-0.901,0.094-1.337s-0.555-0.761-1.012-0.878l-4.941-1.273
							c-1.623-0.421-2.757-1.884-2.757-3.558v-6.065c0-1.675,1.132-3.138,2.752-3.557L105.882,60.153z"/>
					</g>
				</g>
			</g>
		</g>
		<g>
			<g>
				<g>
					<g>
						<g>
							<g>
								<path class="st2" d="M143.437,183.468c-0.456,1.304,0.23,2.729,1.534,3.186c0.272,0.096,0.552,0.141,0.825,0.141
									c1.033,0,1.999-0.645,2.359-1.675l9.885-28.256c1.032-2.84,0.722-6.082-0.822-8.656l-20.325-34.474
									c-0.731-1.268-1.715-2.357-2.987-3.282c-3.533-2.405-8.277-2.405-11.874,0.045c-1.208,0.879-2.192,1.967-2.913,3.216
									l-20.327,34.479c-1.554,2.589-1.865,5.832-0.842,8.643l9.887,28.267c0.456,1.303,1.882,1.993,3.185,1.535
									c1.304-0.456,1.99-1.882,1.535-3.185l-9.897-28.296c-0.523-1.439-0.366-3.081,0.43-4.408l20.348-34.515
									c0.38-0.658,0.896-1.228,1.472-1.647c1.85-1.259,4.333-1.258,6.118-0.045c0.639,0.465,1.154,1.034,1.546,1.712
									l20.348,34.511c0.786,1.312,0.943,2.953,0.41,4.42L143.437,183.468z"/>
							</g>
						</g>
					</g>
				</g>
			</g>
		</g>
		<g>
			<g>
				<g>
					<g>
						<g>
							<g>
								<path class="st2" d="M155.984,199.499c4.816,0,8.735-3.918,8.735-8.735s-3.919-8.736-8.735-8.736h-55.969
									c-4.817,0-8.736,3.919-8.736,8.736s3.919,8.735,8.736,8.735H155.984z M96.28,190.763c0-2.06,1.676-3.736,3.736-3.736h55.969
									c2.06,0,3.735,1.676,3.735,3.736c0,2.06-1.676,3.735-3.735,3.735h-55.969C97.956,194.499,96.28,192.823,96.28,190.763z"/>
							</g>
						</g>
					</g>
				</g>
			</g>
		</g>
		<g>
			<g>
				<g>
					<g>
						<g>
							<g>
								<path class="st2" d="M107.078,216.798V198.54c0-1.381-1.119-2.5-2.5-2.5s-2.5,1.119-2.5,2.5v18.259
									c0,1.381,1.119,2.5,2.5,2.5S107.078,218.179,107.078,216.798z"/>
							</g>
						</g>
					</g>
					<g>
						<g>
							<g>
								<path class="st2" d="M153.922,216.798V198.54c0-1.381-1.119-2.5-2.5-2.5s-2.5,1.119-2.5,2.5v18.259
									c0,1.381,1.119,2.5,2.5,2.5S153.922,218.179,153.922,216.798z"/>
							</g>
						</g>
					</g>
				</g>
			</g>
		</g>
		<g>
			<g>
				<g>
					<path class="st2" d="M130.5,145.37v-32.689c0-1.381-1.119-2.5-2.5-2.5s-2.5,1.119-2.5,2.5v32.689c0,1.381,1.119,2.5,2.5,2.5
						S130.5,146.751,130.5,145.37z"/>
				</g>
			</g>
		</g>
		<g>
			<g>
				<g>
					<g>
						<path class="st3" d="M112.059,183.527h31.881c0.638,0,1.205-0.403,1.416-1.005l9.384-26.827
							c0.682-1.877,0.483-4.009-0.528-5.695l-20.341-34.499c-0.493-0.854-1.153-1.586-2.002-2.203
							c-0.244-0.166-0.486-0.291-0.682-0.392c-0.216-0.112-0.453-0.167-0.689-0.167c-0.271,0-0.541,0.073-0.78,0.219
							c-0.447,0.272-0.72,0.758-0.72,1.281v31.131c0,0.551-0.449,1-1,1s-1-0.449-1-1v-31.124c0-0.522-0.271-1.006-0.716-1.279
							c-0.24-0.147-0.511-0.221-0.784-0.221c-0.233,0-0.467,0.054-0.681,0.164c-0.236,0.12-0.491,0.257-0.794,0.463
							c-0.756,0.552-1.409,1.282-1.879,2.097l-20.342,34.505c-1.023,1.705-1.23,3.833-0.56,5.675l9.4,26.873
							C110.854,183.124,111.422,183.527,112.059,183.527z M103.09,150.747l20.348-34.515c0.38-0.658,0.896-1.228,1.472-1.647
							c0.189-0.129,0.389-0.236,0.59-0.338v31.124c0,1.381,1.119,2.5,2.5,2.5s2.5-1.119,2.5-2.5V114.24
							c0.18,0.093,0.359,0.186,0.527,0.3c0.639,0.465,1.154,1.034,1.546,1.712l20.348,34.511c0.786,1.312,0.943,2.953,0.41,4.42
							l-9.391,26.844h-31.881l-9.4-26.873C102.136,153.715,102.293,152.074,103.09,150.747z"/>
						<path class="st3" d="M94.78,190.763c0,2.887,2.349,5.235,5.236,5.235h55.969c2.887,0,5.235-2.349,5.235-5.235
							c0-2.887-2.349-5.236-5.235-5.236h-55.969C97.129,185.527,94.78,187.876,94.78,190.763z M159.72,190.763
							c0,2.06-1.676,3.735-3.735,3.735h-55.969c-2.06,0-3.736-1.676-3.736-3.735c0-2.06,1.676-3.736,3.736-3.736h55.969
							C158.044,187.027,159.72,188.703,159.72,190.763z"/>
						<path class="st3" d="M91.28,190.763c0,4.817,3.919,8.735,8.736,8.735h2.063v17.3c0,1.381,1.119,2.5,2.5,2.5s2.5-1.119,2.5-2.5
							v-17.3h41.844v17.3c0,1.381,1.119,2.5,2.5,2.5s2.5-1.119,2.5-2.5v-17.3h2.063c4.816,0,8.735-3.918,8.735-8.735
							s-3.919-8.736-8.735-8.736h-6.747l8.803-25.164c1.032-2.84,0.722-6.082-0.822-8.656l-20.325-34.474
							c-0.731-1.268-1.715-2.357-2.987-3.282c-1.758-1.197-3.817-1.798-5.885-1.798c-2.087,0-4.182,0.612-5.989,1.843
							c-1.208,0.879-2.192,1.967-2.913,3.216l-20.327,34.479c-1.554,2.589-1.865,5.832-0.842,8.643l8.812,25.193h-6.747
							C95.199,182.027,91.28,185.946,91.28,190.763z M107.986,182.895c0.281-0.396,0.353-0.905,0.193-1.363l-8.818-25.211
							c-0.873-2.402-0.605-5.153,0.725-7.369l20.334-34.49c0.619-1.072,1.458-1.998,2.458-2.726c1.52-1.036,3.299-1.583,5.144-1.583
							c1.819,0,3.562,0.532,5.003,1.512c1.094,0.794,1.934,1.716,2.577,2.83l20.331,34.484c1.317,2.196,1.578,4.952,0.693,7.389
							l-8.803,25.164c-0.16,0.459-0.089,0.967,0.193,1.363c0.281,0.396,0.737,0.632,1.223,0.632h6.747
							c3.99,0,7.235,3.246,7.235,7.236c0,3.99-3.246,7.235-7.235,7.235h-2.063c-0.828,0-1.5,0.672-1.5,1.5v17.3c0,0.551-0.449,1-1,1
							s-1-0.449-1-1v-17.3c0-0.828-0.672-1.5-1.5-1.5h-41.844c-0.828,0-1.5,0.672-1.5,1.5v17.3c0,0.551-0.449,1-1,1s-1-0.449-1-1
							v-17.3c0-0.828-0.672-1.5-1.5-1.5h-2.063c-3.99,0-7.236-3.246-7.236-7.235c0-3.99,3.246-7.236,7.236-7.236h6.747
							C107.249,183.527,107.704,183.292,107.986,182.895z"/>
					</g>
				</g>
			</g>
		</g>
		<g>
			<g>
				<g>
					<path class="st4" d="M138.462,153.333c0-5.769-4.693-10.462-10.462-10.462c-5.769,0-10.462,4.693-10.462,10.462
						s4.693,10.462,10.462,10.462C133.769,163.795,138.462,159.102,138.462,153.333z M122.538,153.333
						c0-3.012,2.45-5.462,5.462-5.462c3.012,0,5.462,2.45,5.462,5.462s-2.45,5.462-5.462,5.462
						C124.988,158.795,122.538,156.345,122.538,153.333z"/>
				</g>
			</g>
		</g>
		<g>
			<g>
				<g>
					<g>
						<path class="st5" d="M138.462,153.333c0-5.769-4.693-10.462-10.462-10.462c-5.769,0-10.462,4.693-10.462,10.462
							s4.693,10.462,10.462,10.462C133.769,163.795,138.462,159.102,138.462,153.333z M119.038,153.333
							c0-4.942,4.021-8.962,8.962-8.962c4.942,0,8.962,4.021,8.962,8.962s-4.02,8.962-8.962,8.962
							C123.058,162.295,119.038,158.274,119.038,153.333z"/>
						<path class="st5" d="M134.962,153.333c0-3.839-3.123-6.962-6.962-6.962c-3.839,0-6.962,3.123-6.962,6.962
							s3.123,6.962,6.962,6.962C131.839,160.295,134.962,157.172,134.962,153.333z M122.538,153.333c0-3.012,2.45-5.462,5.462-5.462
							c3.012,0,5.462,2.45,5.462,5.462s-2.45,5.462-5.462,5.462C124.988,158.795,122.538,156.345,122.538,153.333z"/>
					</g>
				</g>
			</g>
		</g>
	</g>
</g>
</svg>
