<svg viewBox="0 0 128 128" xmlns="http://www.w3.org/2000/svg"><path fill="#F7DF1E" d="M1.408 1.408h125.184v125.185H1.408z"/><path d="M116.042 116.042H11.958V11.958h104.084z" fill="#F7DF1E"/><path d="M89.297 104.6c2.1 3.43 4.83 5.96 9.66 5.96 4.05 0 6.64-2.02 6.64-4.83 0-3.36-2.67-4.55-7.17-6.5l-2.46-1.05c-7.1-3.02-11.83-6.81-11.83-14.81 0-7.37 5.62-12.98 14.4-12.98 6.25 0 10.75 2.18 13.97 7.89l-7.64 4.91c-1.68-3.02-3.5-4.2-6.33-4.2-2.88 0-4.71 1.83-4.71 4.2 0 2.94 1.83 4.13 6.06 5.94l2.46 1.05c8.37 3.58 13.1 7.23 13.1 15.41 0 8.83-6.94 13.67-16.28 13.67-9.12 0-15.01-4.36-17.85-10.07zm-35.7.82c1.54 2.74 2.94 5.06 6.33 5.06 3.23 0 5.27-1.26 5.27-6.17V70.6h9.23v33.86c0 9.57-5.62 13.93-13.82 13.93-7.41 0-11.72-3.84-13.93-8.5z"/></svg> 