<?xml version="1.0" encoding="utf-8"?>
<!-- Generator: Adobe Illustrator 24.0.0, SVG Export Plug-In . SVG Version: 6.00 Build 0)  -->
<svg version="1.1" id="Layer_1" xmlns="http://www.w3.org/2000/svg" xmlns:xlink="http://www.w3.org/1999/xlink" x="0px" y="0px"
	 viewBox="0 0 256 256" style="enable-background:new 0 0 256 256;" xml:space="preserve">
<style type="text/css">
	.st0{fill:#382B73;}
	.st1{fill:#291B4A;}
	.st2{fill:#ED9ABC;}
	.st3{fill:#E54890;}
	.st4{fill:#D3D3D3;}
	.st5{fill:#EBE7F2;}
	.st6{fill:#F9B087;}
	.st7{fill:#FF8639;}
	.st8{fill:#65C1D6;}
	.st9{fill:#149CB2;}
</style>
<g>
	<g>
		<g>
			<g>
				<g>
					<circle class="st0" cx="128" cy="128" r="119.4"/>
				</g>
			</g>
		</g>
	</g>
	<g>
		<g>
			<g>
				<g>
					<path class="st1" d="M50.421,69.63v103.445c0,3.369,2.741,6.109,6.109,6.109h142.938c3.369,0,6.109-2.74,6.109-6.109V69.63
						c0-3.369-2.741-6.109-6.109-6.109H56.531C53.162,63.521,50.421,66.261,50.421,69.63z M200.579,69.63v103.445
						c0,0.611-0.498,1.109-1.109,1.109H56.531c-0.612,0-1.109-0.498-1.109-1.109V69.63c0-0.611,0.498-1.109,1.109-1.109h142.938
						C200.081,68.521,200.579,69.019,200.579,69.63z"/>
				</g>
			</g>
		</g>
		<g>
			<g>
				<g>
					<path class="st1" d="M63.521,78.98v77.188c0,1.381,1.119,2.5,2.5,2.5h123.958c1.381,0,2.5-1.119,2.5-2.5V78.98
						c0-1.381-1.119-2.5-2.5-2.5H66.021C64.64,76.48,63.521,77.6,63.521,78.98z M68.521,81.48h118.958v72.188H68.521V81.48z"/>
				</g>
			</g>
		</g>
		<g>
			<g>
				<g>
					<path class="st1" d="M116.28,185.327c0.083-1.378-0.966-2.563-2.344-2.646c-1.367-0.096-2.563,0.965-2.647,2.344
						c-0.321,5.281-3.792,10.082-10.585,14.663h-7.958c-4.317,0-7.829,3.512-7.829,7.829s3.512,7.829,7.829,7.829h70.508
						c4.317,0,7.829-3.512,7.829-7.829s-3.512-7.829-7.829-7.829h-7.959c-6.792-4.581-10.263-9.382-10.584-14.663
						c-0.084-1.379-1.262-2.412-2.647-2.344c-1.378,0.084-2.427,1.269-2.344,2.646c0.319,5.24,2.782,9.98,7.489,14.36h-38.417
						C113.498,195.308,115.961,190.567,116.28,185.327z M163.254,204.688c1.56,0,2.829,1.27,2.829,2.829s-1.269,2.829-2.829,2.829
						H92.746c-1.56,0-2.829-1.27-2.829-2.829s1.269-2.829,2.829-2.829H163.254z"/>
				</g>
			</g>
		</g>
		<g>
			<g>
				<g>
					<path class="st1" d="M157.446,97.112h-41.104v-4.979c0-1.381-1.119-2.5-2.5-2.5H83.266c-1.381,0-2.5,1.119-2.5,2.5v14.958
						c0,1.381,1.119,2.5,2.5,2.5h30.576c1.381,0,2.5-1.119,2.5-2.5v-4.979h38.604v4.083h-12.788c-1.381,0-2.5,1.119-2.5,2.5v14.958
						c0,1.381,1.119,2.5,2.5,2.5h12.788v6.883h-38.604v-4.979c0-1.381-1.119-2.5-2.5-2.5H83.266c-1.381,0-2.5,1.119-2.5,2.5v14.958
						c0,1.381,1.119,2.5,2.5,2.5h30.576c1.381,0,2.5-1.119,2.5-2.5v-4.979h41.104c1.381,0,2.5-1.119,2.5-2.5v-9.383h12.788
						c1.381,0,2.5-1.119,2.5-2.5v-14.958c0-1.381-1.119-2.5-2.5-2.5h-12.788v-6.583C159.946,98.231,158.827,97.112,157.446,97.112z
						 M111.342,104.592H85.766v-9.958h25.576V104.592z M111.342,140.516H85.766v-9.958h25.576V140.516z M170.234,111.195v9.958
						h-25.576v-9.958H170.234z"/>
				</g>
			</g>
		</g>
	</g>
	<g>
		<g>
			<g>
				<g>
					<g>
						<path class="st6" d="M116.28,181.327c0.083-1.378-0.966-2.563-2.344-2.646c-1.367-0.092-2.563,0.965-2.647,2.344
							c-0.331,5.438-3.99,10.367-11.187,15.07c-0.926,0.605-1.344,1.746-1.028,2.807c0.315,1.06,1.29,1.786,2.396,1.786h53.06
							c1.106,0,2.081-0.727,2.396-1.786c0.315-1.061-0.103-2.201-1.028-2.807c-7.197-4.703-10.856-9.633-11.187-15.07
							c-0.084-1.379-1.262-2.408-2.647-2.344c-1.378,0.084-2.427,1.269-2.344,2.646c0.319,5.24,2.782,9.98,7.489,14.36h-38.417
							C113.498,191.308,115.961,186.567,116.28,181.327z"/>
					</g>
				</g>
			</g>
			<g>
				<g>
					<g>
						<g>
							<g>
								<path class="st6" d="M50.421,65.63v103.445c0,3.369,2.741,6.109,6.109,6.109h142.938c3.369,0,6.109-2.74,6.109-6.109V65.63
									c0-3.369-2.741-6.109-6.109-6.109H56.531C53.162,59.521,50.421,62.261,50.421,65.63z M200.579,65.63v103.445
									c0,0.611-0.498,1.109-1.109,1.109H56.531c-0.612,0-1.109-0.498-1.109-1.109V65.63c0-0.611,0.498-1.109,1.109-1.109h142.938
									C200.081,64.521,200.579,65.019,200.579,65.63z"/>
							</g>
						</g>
					</g>
					<g>
						<g>
							<g>
								<path class="st6" d="M63.521,74.98v77.188c0,1.381,1.119,2.5,2.5,2.5h123.958c1.381,0,2.5-1.119,2.5-2.5V74.98
									c0-1.381-1.119-2.5-2.5-2.5H66.021C64.64,72.48,63.521,73.6,63.521,74.98z M68.521,77.48h118.958v72.188H68.521V77.48z"/>
							</g>
						</g>
					</g>
				</g>
			</g>
			<g>
				<g>
					<g>
						<path class="st6" d="M84.917,203.517c0,4.317,3.512,7.829,7.829,7.829h70.508c4.317,0,7.829-3.512,7.829-7.829
							s-3.512-7.829-7.829-7.829H92.746C88.429,195.688,84.917,199.199,84.917,203.517z M92.746,200.688h70.508
							c1.56,0,2.829,1.27,2.829,2.829s-1.269,2.829-2.829,2.829H92.746c-1.56,0-2.829-1.27-2.829-2.829
							S91.186,200.688,92.746,200.688z"/>
					</g>
				</g>
			</g>
		</g>
		<g>
			<g>
				<g>
					<path class="st4" d="M157.446,107.195c1.381,0,2.5-1.119,2.5-2.5v-9.083c0-1.381-1.119-2.5-2.5-2.5h-43.604
						c-1.381,0-2.5,1.119-2.5,2.5s1.119,2.5,2.5,2.5h41.104v6.583C154.946,106.076,156.065,107.195,157.446,107.195z"/>
				</g>
			</g>
		</g>
		<g>
			<g>
				<g>
					<path class="st4" d="M111.342,131.536c0,1.381,1.119,2.5,2.5,2.5h43.604c1.381,0,2.5-1.119,2.5-2.5v-11.883
						c0-1.381-1.119-2.5-2.5-2.5s-2.5,1.119-2.5,2.5v9.383h-41.104C112.461,129.036,111.342,130.155,111.342,131.536z"/>
				</g>
			</g>
		</g>
		<g>
			<g>
				<g>
					<g>
						<path class="st5" d="M157.446,107.195c1.381,0,2.5-1.119,2.5-2.5v-9.083c0-1.381-1.119-2.5-2.5-2.5h-43.604
							c-1.381,0-2.5,1.119-2.5,2.5s1.119,2.5,2.5,2.5h41.104v6.583C154.946,106.076,156.065,107.195,157.446,107.195z
							 M113.842,96.612c-0.551,0-1-0.448-1-1s0.449-1,1-1h43.604c0.551,0,1,0.448,1,1v9.083c0,0.552-0.449,1-1,1s-1-0.448-1-1
							v-6.583c0-0.828-0.672-1.5-1.5-1.5H113.842z"/>
					</g>
				</g>
			</g>
		</g>
		<g>
			<g>
				<g>
					<g>
						<path class="st5" d="M111.342,131.536c0,1.381,1.119,2.5,2.5,2.5h43.604c1.381,0,2.5-1.119,2.5-2.5v-11.883
							c0-1.381-1.119-2.5-2.5-2.5s-2.5,1.119-2.5,2.5v9.383h-41.104C112.461,129.036,111.342,130.155,111.342,131.536z
							 M113.842,130.536h41.104c0.828,0,1.5-0.672,1.5-1.5v-9.383c0-0.552,0.449-1,1-1s1,0.448,1,1v11.883c0,0.552-0.449,1-1,1
							h-43.604c-0.551,0-1-0.448-1-1S113.29,130.536,113.842,130.536z"/>
					</g>
				</g>
			</g>
		</g>
		<g>
			<g>
				<g>
					<g>
						<path class="st8" d="M83.266,85.634c-1.381,0-2.5,1.119-2.5,2.5v14.958c0,1.381,1.119,2.5,2.5,2.5h30.576
							c1.381,0,2.5-1.119,2.5-2.5V88.134c0-1.381-1.119-2.5-2.5-2.5H83.266z M111.342,100.592H85.766v-9.958h25.576V100.592z"/>
					</g>
				</g>
			</g>
			<g>
				<g>
					<g>
						<path class="st8" d="M139.658,104.695v14.958c0,1.381,1.119,2.5,2.5,2.5h30.576c1.381,0,2.5-1.119,2.5-2.5v-14.958
							c0-1.381-1.119-2.5-2.5-2.5h-30.576C140.777,102.195,139.658,103.314,139.658,104.695z M144.658,107.195h25.576v9.958h-25.576
							V107.195z"/>
					</g>
				</g>
			</g>
			<g>
				<g>
					<g>
						<path class="st8" d="M83.266,121.558c-1.381,0-2.5,1.119-2.5,2.5v14.958c0,1.381,1.119,2.5,2.5,2.5h30.576
							c1.381,0,2.5-1.119,2.5-2.5v-14.958c0-1.381-1.119-2.5-2.5-2.5H83.266z M111.342,136.516H85.766v-9.958h25.576V136.516z"/>
					</g>
				</g>
			</g>
		</g>
		<g>
			<g>
				<g>
					<g>
						<path class="st9" d="M83.266,85.634c-1.381,0-2.5,1.119-2.5,2.5v14.958c0,1.381,1.119,2.5,2.5,2.5h30.576
							c1.381,0,2.5-1.119,2.5-2.5V88.134c0-1.381-1.119-2.5-2.5-2.5H83.266z M114.842,88.134v14.958c0,0.552-0.449,1-1,1H83.266
							c-0.551,0-1-0.448-1-1V88.134c0-0.552,0.449-1,1-1h30.576C114.393,87.134,114.842,87.582,114.842,88.134z"/>
						<path class="st9" d="M111.342,89.134H85.766c-0.828,0-1.5,0.672-1.5,1.5v9.958c0,0.828,0.672,1.5,1.5,1.5h25.576
							c0.828,0,1.5-0.672,1.5-1.5v-9.958C112.842,89.805,112.17,89.134,111.342,89.134z M111.342,100.592H85.766v-9.958h25.576
							V100.592z"/>
					</g>
				</g>
			</g>
			<g>
				<g>
					<g>
						<path class="st9" d="M144.658,118.653h25.576c0.828,0,1.5-0.672,1.5-1.5v-9.958c0-0.828-0.672-1.5-1.5-1.5h-25.576
							c-0.828,0-1.5,0.672-1.5,1.5v9.958C143.158,117.982,143.83,118.653,144.658,118.653z M144.658,107.195h25.576v9.958h-25.576
							V107.195z"/>
						<path class="st9" d="M139.658,104.695v14.958c0,1.381,1.119,2.5,2.5,2.5h30.576c1.381,0,2.5-1.119,2.5-2.5v-14.958
							c0-1.381-1.119-2.5-2.5-2.5h-30.576C140.777,102.195,139.658,103.314,139.658,104.695z M141.158,104.695c0-0.552,0.449-1,1-1
							h30.576c0.551,0,1,0.448,1,1v14.958c0,0.552-0.449,1-1,1h-30.576c-0.551,0-1-0.448-1-1V104.695z"/>
					</g>
				</g>
			</g>
			<g>
				<g>
					<g>
						<path class="st9" d="M83.266,121.558c-1.381,0-2.5,1.119-2.5,2.5v14.958c0,1.381,1.119,2.5,2.5,2.5h30.576
							c1.381,0,2.5-1.119,2.5-2.5v-14.958c0-1.381-1.119-2.5-2.5-2.5H83.266z M114.842,124.058v14.958c0,0.552-0.449,1-1,1H83.266
							c-0.551,0-1-0.448-1-1v-14.958c0-0.552,0.449-1,1-1h30.576C114.393,123.058,114.842,123.506,114.842,124.058z"/>
						<path class="st9" d="M111.342,125.058H85.766c-0.828,0-1.5,0.672-1.5,1.5v9.958c0,0.828,0.672,1.5,1.5,1.5h25.576
							c0.828,0,1.5-0.672,1.5-1.5v-9.958C112.842,125.729,112.17,125.058,111.342,125.058z M111.342,136.516H85.766v-9.958h25.576
							V136.516z"/>
					</g>
				</g>
			</g>
		</g>
		<g>
			<g>
				<g>
					<g>
						<path class="st7" d="M53.921,65.63v103.445c0,1.439,1.171,2.609,2.609,2.609h142.938c1.439,0,2.609-1.171,2.609-2.609V65.63
							c0-1.439-1.171-2.609-2.609-2.609H56.531C55.092,63.021,53.921,64.191,53.921,65.63z M200.579,65.63v103.445
							c0,0.611-0.498,1.109-1.109,1.109H56.531c-0.612,0-1.109-0.498-1.109-1.109V65.63c0-0.611,0.498-1.109,1.109-1.109h142.938
							C200.081,64.521,200.579,65.019,200.579,65.63z"/>
						<path class="st7" d="M50.421,65.63v103.445c0,3.369,2.741,6.109,6.109,6.109h142.938c3.369,0,6.109-2.74,6.109-6.109V65.63
							c0-3.369-2.741-6.109-6.109-6.109H56.531C53.162,59.521,50.421,62.261,50.421,65.63z M204.079,65.63v103.445
							c0,2.542-2.068,4.609-4.609,4.609H56.531c-2.542,0-4.609-2.068-4.609-4.609V65.63c0-2.542,2.068-4.609,4.609-4.609h142.938
							C202.011,61.021,204.079,63.088,204.079,65.63z"/>
					</g>
				</g>
			</g>
			<g>
				<g>
					<g>
						<path class="st7" d="M63.521,74.98v77.188c0,1.381,1.119,2.5,2.5,2.5h123.958c1.381,0,2.5-1.119,2.5-2.5V74.98
							c0-1.381-1.119-2.5-2.5-2.5H66.021C64.64,72.48,63.521,73.6,63.521,74.98z M190.979,74.98v77.188c0,0.552-0.449,1-1,1H66.021
							c-0.551,0-1-0.448-1-1V74.98c0-0.552,0.449-1,1-1h123.958C190.53,73.98,190.979,74.429,190.979,74.98z"/>
						<path class="st7" d="M68.521,151.169h118.958c0.828,0,1.5-0.672,1.5-1.5V77.48c0-0.828-0.672-1.5-1.5-1.5H68.521
							c-0.828,0-1.5,0.672-1.5,1.5v72.188C67.021,150.497,67.693,151.169,68.521,151.169z M68.521,77.48h118.958v72.188H68.521
							V77.48z"/>
					</g>
				</g>
			</g>
			<g>
				<g>
					<g>
						<path class="st7" d="M116.28,181.327c0.083-1.378-0.966-2.563-2.344-2.646c-0.055-0.004-0.111-0.006-0.165-0.006
							c-1.297,0-2.401,1.026-2.482,2.349c-0.321,5.281-3.792,10.082-10.585,14.663h-7.958c-4.317,0-7.829,3.512-7.829,7.829
							s3.512,7.829,7.829,7.829h70.508c4.317,0,7.829-3.512,7.829-7.829s-3.512-7.829-7.829-7.829h-7.959
							c-6.792-4.581-10.263-9.382-10.584-14.663c-0.081-1.338-1.193-2.347-2.524-2.347c-0.041,0-0.082,0.001-0.123,0.003
							c-1.378,0.084-2.427,1.269-2.344,2.646c0.319,5.24,2.782,9.98,7.489,14.36h-38.417
							C113.498,191.308,115.961,186.567,116.28,181.327z M107.769,194.589c-0.451,0.42-0.6,1.073-0.374,1.647
							c0.226,0.574,0.779,0.951,1.396,0.951h38.417c0.617,0,1.17-0.377,1.396-0.951s0.077-1.227-0.374-1.647
							c-4.423-4.116-6.717-8.484-7.013-13.353c-0.033-0.55,0.387-1.025,0.916-1.057l0.054-0.001c0.553,0,0.995,0.403,1.027,0.938
							c0.351,5.777,4.029,10.95,11.243,15.816c0.248,0.167,0.54,0.256,0.839,0.256h7.959c3.49,0,6.329,2.839,6.329,6.329
							s-2.839,6.329-6.329,6.329H92.746c-3.49,0-6.329-2.839-6.329-6.329s2.839-6.329,6.329-6.329h7.958
							c0.299,0,0.591-0.089,0.839-0.256c7.214-4.865,10.892-10.039,11.243-15.815c0.032-0.519,0.474-0.941,0.985-0.941c0,0,0,0,0,0
							l0.074,0.003c0.55,0.033,0.971,0.508,0.938,1.058C114.487,186.105,112.193,190.473,107.769,194.589z"/>
						<path class="st7" d="M88.417,203.517c0,2.387,1.942,4.329,4.329,4.329h70.508c2.387,0,4.329-1.942,4.329-4.329
							s-1.942-4.329-4.329-4.329H92.746C90.359,199.188,88.417,201.13,88.417,203.517z M166.083,203.517
							c0,1.56-1.269,2.829-2.829,2.829H92.746c-1.56,0-2.829-1.27-2.829-2.829s1.269-2.829,2.829-2.829h70.508
							C164.814,200.688,166.083,201.957,166.083,203.517z"/>
					</g>
				</g>
			</g>
		</g>
	</g>
</g>
</svg>
